<svg width="40" height="40" viewBox="0 0 40 40" fill="none" xmlns="http://www.w3.org/2000/svg">
<g clip-path="url(#clip0_2_8)">
<circle cx="20" cy="20" r="20" fill="white"/>
<path d="M19.9975 2.12997e-07C16.0415 2.55115e-07 12.1743 1.17314 8.88498 3.37106C5.5957 5.56897 3.03206 8.69295 1.51828 12.3479C0.00450549 16.0029 -0.39142 20.0246 0.380578 23.9046C1.15258 27.7846 3.05782 31.3485 5.85537 34.1457C8.65291 36.9428 12.2171 38.8475 16.0972 39.619C19.9773 40.3904 23.999 39.9939 27.6538 38.4796C31.3085 36.9653 34.4321 34.4012 36.6295 31.1116C38.827 27.8219 39.9995 23.9546 39.999 19.9985C39.999 17.372 39.4816 14.7713 38.4764 12.3448C37.4712 9.91823 35.9978 7.71348 34.1405 5.85641C32.2831 3.99933 30.0782 2.52631 27.6515 1.52146C25.2248 0.516612 22.624 -0.000383105 19.9975 2.12997e-07ZM22.563 9.73951L24.7169 13.6943L21.235 20.0861L15.602 9.73951H22.563ZM19.9975 37.5483L4.70089 9.87961H11.6735L23.3627 31.4776L19.9975 37.5483ZM25.3094 27.9431L21.953 21.598L28.3331 9.87961H35.2941L25.3094 27.9431Z" fill="#B06EE4"/>
</g>
<defs>
<clipPath id="clip0_2_8">
<rect width="40" height="40" fill="white"/>
</clipPath>
</defs>
</svg>
