<svg width="22" height="19" viewBox="0 0 22 19" fill="none" xmlns="http://www.w3.org/2000/svg">
<path d="M15.3771 3.03344L18.8222 6.32605C18.9674 6.46477 18.9674 6.69109 18.8222 6.8298L10.4806 14.8022L6.93611 15.1781C6.4625 15.2293 6.06146 14.846 6.11493 14.3933L6.50833 11.0058L14.85 3.03344C14.9951 2.89473 15.2319 2.89473 15.3771 3.03344ZM21.5646 2.19751L19.7007 0.41614C19.1201 -0.138713 18.1767 -0.138713 17.5924 0.41614L16.2403 1.70836C16.0951 1.84708 16.0951 2.0734 16.2403 2.21211L19.6854 5.50473C19.8306 5.64344 20.0674 5.64344 20.2125 5.50473L21.5646 4.2125C22.1451 3.654 22.1451 2.75236 21.5646 2.19751ZM14.6667 12.6339V16.3499H2.44444V4.6688H11.2215C11.3437 4.6688 11.4583 4.62134 11.5462 4.54103L13.074 3.08089C13.3642 2.80347 13.158 2.33257 12.7493 2.33257H1.83333C0.821181 2.33257 0 3.1174 0 4.08474V16.934C0 17.9013 0.821181 18.6861 1.83333 18.6861H15.2778C16.2899 18.6861 17.1111 17.9013 17.1111 16.934V11.1737C17.1111 10.7831 16.6184 10.5897 16.3281 10.8634L14.8003 12.3236C14.7163 12.4075 14.6667 12.517 14.6667 12.6339Z" fill="#2183E5"/>
</svg>
